<svg width="1440" height="820" viewBox="0 0 1440 820" fill="none" xmlns="http://www.w3.org/2000/svg">
<g clip-path="url(#clip0_61385_101)">
<circle cx="881" cy="-137" r="559" transform="rotate(-180 881 -137)" fill="url(#paint0_radial_61385_101)"/>
<circle cx="559" cy="-137" r="559" transform="rotate(-180 559 -137)" fill="url(#paint1_radial_61385_101)"/>
<rect x="541" y="140" width="358" height="540" fill="#202024"/>
<mask id="mask0_61385_101" style="mask-type:alpha" maskUnits="userSpaceOnUse" x="541" y="140" width="358" height="540">
<rect x="541" y="140" width="358" height="540" fill="#202024"/>
</mask>
<g mask="url(#mask0_61385_101)">
<path d="M899 201.492V-256.824L720 -360L541 -256.824V201.492L720 304.674L899 201.492Z" fill="#29292E"/>
<g style="mix-blend-mode:luminosity" opacity="0.4">
<path d="M542.796 99.3496V202.159L631.847 253.569L720.898 202.159V99.3496L631.847 47.9399L542.796 99.3496Z" fill="url(#paint2_linear_61385_101)"/>
<path d="M542.796 -3.46505V99.3445L631.847 150.754L720.898 99.3445V-3.46505L631.847 -54.8747L542.796 -3.46505Z" fill="url(#paint3_linear_61385_101)"/>
<path d="M720.898 202.159V99.3492L809.949 47.9395L899 99.3492V202.159L809.949 253.568L720.898 202.159Z" fill="url(#paint4_linear_61385_101)"/>
<path d="M899 -3.46505V99.3445L809.949 150.754L720.898 99.3445V-3.46505L809.949 -54.8747L899 -3.46505Z" fill="url(#paint5_linear_61385_101)"/>
<path d="M809.949 253.59V150.781L720.898 99.3711L631.847 150.781V253.59L720.898 305L809.949 253.59Z" fill="url(#paint6_linear_61385_101)"/>
</g>
</g>
<rect x="680" y="156" width="80" height="8" fill="#121214"/>
<rect x="688" width="64" height="158" fill="url(#paint7_linear_61385_101)"/>
</g>
<defs>
<radialGradient id="paint0_radial_61385_101" cx="0" cy="0" r="1" gradientUnits="userSpaceOnUse" gradientTransform="translate(881 -137) rotate(90) scale(559)">
<stop stop-color="#23D7FF"/>
<stop offset="1" stop-color="#121214" stop-opacity="0"/>
</radialGradient>
<radialGradient id="paint1_radial_61385_101" cx="0" cy="0" r="1" gradientUnits="userSpaceOnUse" gradientTransform="translate(559 -137) rotate(90) scale(559)">
<stop stop-color="#413DFF" stop-opacity="0.62"/>
<stop offset="1" stop-color="#121214" stop-opacity="0"/>
</radialGradient>
<linearGradient id="paint2_linear_61385_101" x1="631.847" y1="248.84" x2="542.811" y2="97.3205" gradientUnits="userSpaceOnUse">
<stop stop-color="#E5BD57" stop-opacity="0.87"/>
<stop offset="1" stop-color="#FF008E" stop-opacity="0"/>
</linearGradient>
<linearGradient id="paint3_linear_61385_101" x1="631.847" y1="146.026" x2="542.81" y2="-5.49407" gradientUnits="userSpaceOnUse">
<stop stop-color="#E5BD57" stop-opacity="0.87"/>
<stop offset="1" stop-color="#FF008E" stop-opacity="0"/>
</linearGradient>
<linearGradient id="paint4_linear_61385_101" x1="899" y1="207.937" x2="720.908" y2="100.768" gradientUnits="userSpaceOnUse">
<stop stop-color="#225347" stop-opacity="0.53"/>
<stop offset="1" stop-color="#FFCD1E"/>
</linearGradient>
<linearGradient id="paint5_linear_61385_101" x1="809.949" y1="146.026" x2="898.985" y2="-5.49406" gradientUnits="userSpaceOnUse">
<stop stop-color="#E5BD57" stop-opacity="0.87"/>
<stop offset="1" stop-color="#FF008E" stop-opacity="0"/>
</linearGradient>
<linearGradient id="paint6_linear_61385_101" x1="720.898" y1="104.099" x2="809.934" y2="255.619" gradientUnits="userSpaceOnUse">
<stop stop-color="#E5BD57" stop-opacity="0.87"/>
<stop offset="1" stop-color="#FF008E" stop-opacity="0"/>
</linearGradient>
<linearGradient id="paint7_linear_61385_101" x1="649.5" y1="4.93019e-08" x2="782" y2="158" gradientUnits="userSpaceOnUse">
<stop stop-color="#0047FF"/>
<stop offset="1" stop-color="#1E93FF"/>
</linearGradient>
<clipPath id="clip0_61385_101">
<rect width="1440" height="820" fill="white"/>
</clipPath>
</defs>
</svg>
